<svg width="963" height="694" viewBox="0 0 963 694" fill="none" xmlns="http://www.w3.org/2000/svg">
<path d="M378 1H166V75H378V1Z" fill="black" stroke="black"/>
<circle cx="205" cy="489" r="205" fill="black"/>
<circle cx="758" cy="489" r="205" fill="black"/>
<path d="M246.5 143H650C639.792 94.9252 619.027 4.5 700 4.5H827.5V70H722C715.667 71.3333 704.1 79.8 708.5 103L795 486H732L665.618 210H297L238 488.5H164L246.5 143Z" fill="black"/>
<path d="M650 143H246.5L164 488.5H238L297 210H665.618M650 143C639.792 94.9252 619.027 4.5 700 4.5C742.8 4.5 802.833 4.5 827.5 4.5V70H722C715.667 71.3333 704.1 79.8 708.5 103L795 486H732L665.618 210M650 143L665.618 210" stroke="black"/>
</svg>
